Coordinates
version=1
nRows=32
nColumns=22
inDegrees=yes

Units are S.I. units (second, meters, Newtons, ...)
If the header above contains a line with 'inDegrees', this indicates whether rotational values are in degrees (yes) or radians (no).

endheader
time	pelvis_tilt	pelvis_list	pelvis_rotation	pelvis_tx	pelvis_ty	pelvis_tz	hip_flexion_r	hip_adduction_r	hip_rotation_r	knee_angle_r	ankle_angle_r	subtalar_angle_r	hip_flexion_l	hip_adduction_l	hip_rotation_l	knee_angle_l	ankle_angle_l	subtalar_angle_l	lumbar_extension	lumbar_bending	lumbar_rotation
      0.01000000	     -4.50645168	     -3.17837227	    -11.87305295	     -1.17983369	      0.88341845	      0.65474032	    -13.84033398	      3.75601994	     -1.15889020	    -11.92363847	     24.60348376	      2.61131951	     40.08410573	     -6.98933000	    -12.73171139	    -33.48024831	      3.49910841	     -9.25853956	     -9.50773628	     -2.85399287	      6.68367197
      0.02000000	     -4.49123029	     -3.14969725	    -11.78458735	     -1.17231364	      0.88375017	      0.65440173	    -14.15092730	      3.62027936	     -1.32642174	    -12.20135329	     23.39689932	      2.70682568	     40.15930696	     -6.77168468	    -12.20907149	    -34.38192145	      3.34836040	     -9.36815920	     -9.39528770	     -3.03739614	      6.63571788
      0.03000000	     -4.50867626	     -3.06497007	    -11.66753114	     -1.16339007	      0.88415695	      0.65394162	    -14.45182323	      3.41164976	     -1.55553568	    -12.55178401	     21.87712396	      2.80385190	     40.21105123	     -6.46399262	    -11.70493896	    -35.31778214	      3.21668473	     -9.46093157	     -9.18842338	     -3.29627781	      6.54449179
      0.04000000	     -4.52437593	     -2.99307310	    -11.51999030	     -1.15347553	      0.88471107	      0.65334835	    -14.74661230	      3.19778420	     -1.83929212	    -13.01076587	     20.09830835	      3.08475906	     40.18206759	     -6.12273388	    -11.19234169	    -36.23061014	      3.16343835	     -9.58935883	     -8.96202760	     -3.55087982	      6.45514458
      0.05000000	     -4.57798195	     -2.84779349	    -11.36634230	     -1.14277638	      0.88535836	      0.65267839	    -14.99030733	      2.89676511	     -2.15857033	    -13.52174394	     18.12498943	      3.51520933	     40.08019023	     -5.72285721	    -10.84267810	    -37.04253826	      3.22179998	     -9.74694094	     -8.62702032	     -3.89101559	      6.37163621
      0.06000000	     -4.66210179	     -2.69245660	    -11.18140511	     -1.13167621	      0.88613495	      0.65190036	    -15.15965877	      2.59170682	     -2.47105433	    -14.12217845	     15.98717769	      3.77966230	     39.90131867	     -5.29811396	    -10.55466888	    -37.72212078	      3.33692032	     -9.86059574	     -8.23300409	     -4.23660635	      6.24506119
      0.07000000	     -4.77465606	     -2.51042128	    -11.00175798	     -1.12034907	      0.88702406	      0.65101352	    -15.21486949	      2.24226991	     -2.81254360	    -14.86030178	     13.75062464	      4.27466236	     39.63473839	     -4.86251472	    -10.39079543	    -38.25456013	      3.65552392	     -9.99148598	     -7.77844244	     -4.59557046	      6.14801043
      0.08000000	     -4.93597486	     -2.28983675	    -10.82089903	     -1.10894756	      0.88800220	      0.65006278	    -15.12761428	      1.85428026	     -3.13803122	    -15.72497265	     11.46942968	      4.78571311	     39.31023911	     -4.41453193	    -10.35672307	    -38.62803608	      4.09155614	    -10.09554185	     -7.23857074	     -4.98535723	      6.01013401
      0.09000000	     -5.12474174	     -2.06233378	    -10.63435497	     -1.09762036	      0.88909655	      0.64901014	    -14.89077122	      1.45466934	     -3.46055623	    -16.76298031	      9.17016482	      5.23235272	     38.91946312	     -3.95761826	    -10.36865997	    -38.84779231	      4.61276411	    -10.15358434	     -6.66396998	     -5.36633617	      5.86714958
      0.10000000	     -5.33557212	     -1.81312861	    -10.45037972	     -1.08643425	      0.89029982	      0.64786474	    -14.49185769	      1.02390340	     -3.76798305	    -17.99419617	      6.89944913	      5.59847757	     38.46737540	     -3.47881771	    -10.42360253	    -38.91506470	      5.16378471	    -10.17871228	     -6.06491424	     -5.75772488	      5.71674413
      0.11000000	     -5.55903686	     -1.52842607	    -10.27627671	     -1.07538342	      0.89158509	      0.64665198	    -13.93862401	      0.54418147	     -4.04745271	    -19.41970309	      4.71500519	      5.81374369	     37.95878975	     -2.98060214	    -10.56555361	    -38.85338373	      5.77256824	    -10.16490702	     -5.44794868	     -6.17515973	      5.53204132
      0.12000000	     -5.76144947	     -1.24214647	    -10.10511589	     -1.06453529	      0.89297148	      0.64536504	    -13.24970166	      0.04178209	     -4.31991525	    -21.07425138	      2.63003956	      5.93150720	     37.37702336	     -2.46691758	    -10.70565835	    -38.68496622	      6.42259219	    -10.13546912	     -4.87732249	     -6.59105991	      5.35666134
      0.13000000	     -5.93549055	     -0.95018191	     -9.91993713	     -1.05389310	      0.89443785	      0.64396841	    -12.43512114	     -0.48784759	     -4.59335859	    -22.95149372	      0.64533682	      5.96803349	     36.73150312	     -1.92157687	    -10.82949863	    -38.42493494	      7.04007465	    -10.11179825	     -4.36951655	     -7.00814518	      5.16099070
      0.14000000	     -6.06971197	     -0.63924608	     -9.71533625	     -1.04345954	      0.89594526	      0.64245606	    -11.50283963	     -1.06305230	     -4.87937922	    -25.05295739	     -1.23489906	      5.91998535	     36.03646158	     -1.32634849	    -10.92260275	    -38.11244251	      7.60217222	    -10.11052194	     -3.94078156	     -7.44455194	      4.95074602
      0.15000000	     -6.14784266	     -0.34004661	     -9.49213456	     -1.03320424	      0.89751909	      0.64086789	    -10.49856243	     -1.64471784	     -5.13569457	    -27.32377556	     -3.06494131	      5.76617056	     35.26332199	     -0.71878067	    -10.99989103	    -37.74016893	      8.15619607	    -10.09951193	     -3.61493323	     -7.86710965	      4.68258003
      0.16000000	     -6.16610592	     -0.04798189	     -9.23832431	     -1.02315172	      0.89912569	      0.63916004	     -9.41612871	     -2.24507576	     -5.39656062	    -29.77191034	     -4.84306338	      5.57183326	     34.42541416	     -0.08054949	    -11.02548062	    -37.32813575	      8.65796871	    -10.10293765	     -3.40572951	     -8.27737443	      4.38725252
      0.17000000	     -6.11693226	      0.22501654	     -8.95198913	     -1.01330838	      0.90076052	      0.63734665	     -8.26949337	     -2.85196732	     -5.65782181	    -32.37323510	     -6.55876831	      5.36262467	     33.51916271	      0.57504343	    -10.99329151	    -36.88914719	      9.10184332	    -10.13340471	     -3.32546252	     -8.66588085	      4.06359153
      0.18000000	     -6.00248864	      0.46003437	     -8.63433635	     -1.00366835	      0.90241597	      0.63545689	     -7.07441789	     -3.43124042	     -5.86944211	    -35.07577280	     -8.23457262	      5.18160553	     32.54835934	      1.21749750	    -10.91382619	    -36.43832549	      9.53779212	    -10.16308926	     -3.37273578	     -9.00915833	      3.68547613
      0.19000000	     -5.83106077	      0.66455245	     -8.28991287	     -0.99424876	      0.90407337	      0.63348195	     -5.81389307	     -3.99637965	     -6.04873692	    -37.87110355	     -9.77563802	      5.05967920	     31.52056366	      1.84890256	    -10.79094052	    -35.97157313	      9.94293627	    -10.20048932	     -3.53706765	     -9.30948084	      3.27979973
      0.20000000	     -5.61179498	      0.85019048	     -7.93138563	     -0.98504250	      0.90572387	      0.63144423	     -4.48171381	     -4.55185433	     -6.16667262	    -40.72427886	    -11.04624071	      5.04489469	     30.43460188	      2.47103394	    -10.64108980	    -35.47245153	     10.34636862	    -10.27222548	     -3.79604716	     -9.57924450	      2.85372495
      0.21000000	     -5.37052029	      0.99370945	     -7.55275051	     -0.97607527	      0.90734820	      0.62934576	     -3.06021309	     -5.05496128	     -6.20650875	    -43.59122351	    -12.00325521	      5.12791238	     29.32946571	      3.04480950	    -10.48165616	    -34.96723169	     10.68591133	    -10.29678181	     -4.12367982	     -9.78393669	      2.39191332
      0.22000000	     -5.11822386	      1.11878752	     -7.16681939	     -0.96732672	      0.90893243	      0.62721095	     -1.54336517	     -5.51792291	     -6.14116489	    -46.43794707	    -12.48251977	      5.31061094	     28.20065287	      3.59116763	    -10.31415447	    -34.42575221	     11.02560133	    -10.31729912	     -4.49153459	     -9.95188919	      1.91673396
      0.23000000	     -4.87413646	      1.22188841	     -6.76894738	     -0.95879734	      0.91045946	      0.62504005	      0.07658640	     -5.92394118	     -5.97357650	    -49.22281433	    -12.47299918	      5.52423098	     27.07339276	      4.10049168	    -10.14419042	    -33.85726645	     11.33348802	    -10.32186867	     -4.87263549	    -10.07735726	      1.43155467
      0.24000000	     -4.64549905	      1.29911459	     -6.34629391	     -0.95048374	      0.91191056	      0.62280164	      1.78771767	     -6.26324747	     -5.72623611	    -51.90212100	    -12.02027480	      5.68592134	     25.96435946	      4.57394400	     -9.95676228	    -33.27843936	     11.63260062	    -10.29198129	     -5.25810852	    -10.15238462	      0.94554233
      0.25000000	     -4.46048443	      1.37533928	     -5.91151197	     -0.94233810	      0.91327717	      0.62054464	      3.60405872	     -6.53832527	     -5.36113679	    -54.43499569	    -11.20954243	      5.78084258	     24.88435441	      5.02783407	     -9.76870844	    -32.65026343	     11.85662926	    -10.24717729	     -5.59433754	    -10.20693647	      0.41460501
      0.26000000	     -4.30945119	      1.44088035	     -5.44114232	     -0.93435189	      0.91454373	      0.61820379	      5.49479193	     -6.75977585	     -4.95054504	    -56.79521627	    -10.17119523	      5.78159298	     23.84405533	      5.46935298	     -9.53420974	    -32.01523429	     12.05971568	    -10.17282173	     -5.89831539	    -10.23005714	     -0.11022509
      0.27000000	     -4.17926457	      1.50148945	     -4.92043440	     -0.92644661	      0.91573740	      0.61577153	      7.41139906	     -6.93664833	     -4.51764390	    -58.94036333	     -8.97842196	      5.73751892	     22.82020208	      5.90946629	     -9.24755939	    -31.36631677	     12.24754423	    -10.07212340	     -6.17481861	    -10.22977649	     -0.67780717
      0.28000000	     -4.08111507	      1.56209101	     -4.35297237	     -0.91860310	      0.91684906	      0.61326318	      9.35581013	     -7.07421124	     -4.06328735	    -60.85635573	     -7.70974072	      5.65605568	     21.81955427	      6.35694718	     -8.88019721	    -30.69609541	     12.40738758	     -9.94717618	     -6.40416740	    -10.21616576	     -1.24790104
      0.29000000	     -3.98876572	      1.61982089	     -3.72331793	     -0.91077878	      0.91791408	      0.61067708	     11.27207920	     -7.17760537	     -3.61154872	    -62.51517730	     -6.37723587	      5.61705837	     20.81308826	      6.80486930	     -8.45186547	    -30.01320981	     12.55734310	     -9.80959012	     -6.61691325	    -10.18992107	     -1.87043278
      0.30000000	     -3.89805437	      1.67484142	     -3.03764247	     -0.90295245	      0.91894521	      0.60804093	     13.14150463	     -7.24878626	     -3.16332207	    -63.89991955	     -4.99266142	      5.64511566	     19.78908522	      7.24964899	     -7.96177866	    -29.30999872	     12.69988852	     -9.67205868	     -6.81330226	    -10.15634004	     -2.53200467
      0.31000000	     -3.81545053	      1.72757353	     -2.31306475	     -0.89515458	      0.91993374	      0.60539173	     14.96917688	     -7.28160327	     -2.69668186	    -65.00294459	     -3.58990672	      5.70215241	     18.75539504	      7.68537721	     -7.40445525	    -28.58590810	     12.82462824	     -9.53285714	     -6.98855837	    -10.12184685	     -3.18831866
      0.32000000	     -3.73641496	      1.78273534	     -1.56066059	     -0.88739708	      0.92088112	      0.60274166	     16.73806231	     -7.28103438	     -2.20415443	    -65.81009052	     -2.17999620	      5.76828934	     17.71133726	      8.11118110	     -6.80094002	    -27.84660149	     12.92249050	     -9.39927318	     -7.14938947	    -10.09157754	     -3.84063649
